<?xml version="1.0" encoding="UTF-8"?>
<svg id="Layer_1" data-name="Layer 1" xmlns="http://www.w3.org/2000/svg" viewBox="0 0 4241.21 6004.55">
  <defs>
    <style>
      .cls-1 {
        font-family: LouisGeorgeCafe, 'Louis George Cafe';
        font-size: 419.97px;
      }

      .cls-1, .cls-2 {
        fill: #393839;
      }
    </style>
  </defs>
  <g>
    <g>
      <path class="cls-2" d="M2212.19,3618.73l-203.22-201.45,190.96-195.82v-932.01c0-62.54-50.88-113.41-113.41-113.41v-113c60.48,0,117.33,23.55,160.1,66.31,42.76,42.76,66.31,99.62,66.31,160.1v977.99l-144.81,148.5,42.72,42.35,326.07-334.29,3.21-484.17-56.63,57.35v404.53l-113,106.4v-557.32l284.47-288.04-5.35,807.55-437.42,448.44Z"/>
      <path class="cls-2" d="M2479.38,2467.05l-113,106.93v-293.35c0-153.2-124.64-277.84-277.84-277.84v-113c52.74,0,103.93,10.34,152.15,30.74,46.55,19.69,88.34,47.86,124.21,83.74,35.88,35.88,64.05,77.67,83.74,124.21,20.4,48.22,30.74,99.41,30.74,152.15v186.42Z"/>
    </g>
    <g>
      <path class="cls-2" d="M1964.13,3618.73l203.22-201.45-190.96-195.82v-932.01c0-62.54,50.88-113.41,113.41-113.41v-113c-60.48,0-117.33,23.55-160.1,66.31-42.76,42.76-66.31,99.62-66.31,160.1v977.99s144.81,148.5,144.81,148.5l-42.72,42.35-326.07-334.29-3.21-484.17,56.63,57.35v404.53s113,106.4,113,106.4v-557.32s-284.47-288.04-284.47-288.04l5.35,807.55,437.42,448.44Z"/>
      <path class="cls-2" d="M1696.93,2467.05l113,106.93v-293.35c0-153.2,124.64-277.84,277.84-277.84v-113c-52.74,0-103.93,10.34-152.15,30.74-46.55,19.69-88.34,47.86-124.21,83.74-35.88,35.88-64.05,77.67-83.74,124.21-20.4,48.22-30.74,99.41-30.74,152.15v186.42Z"/>
    </g>
  </g>
  <text class="cls-1" transform="translate(1530.47 4012.21)"><tspan x="0" y="0">Entsas</tspan></text>
</svg>